<?xml version="1.0" encoding="UTF-8"?>
<svg id="_Слой_1" xmlns="http://www.w3.org/2000/svg" version="1.1" viewBox="0 0 245.79 41.25">
  <!-- Generator: Adobe Illustrator 29.3.1, SVG Export Plug-In . SVG Version: 2.1.0 Build 151)  -->
  <defs>
    <style>
      .st0 {
        fill: #30509e;
      }

      .st1 {
        fill: #fff;
      }
    </style>
  </defs>
  <g>
    <path class="st1" d="M0,41.25L17.41,0h9.4L9.4,41.25H0Z"/>
    <path class="st1" d="M23.79,41.25L41.21,0h9.4l-17.41,41.25h-9.41Z"/>
    <path class="st1" d="M67.8,22.2l2.46-.04c3.39,0,6.14.44,8.25,1.31,2.11.88,3.17,2.62,3.17,5.24,0,3.39-1.57,5.65-4.72,6.79-3.15,1.13-6.75,1.7-10.8,1.7s-7.71-.6-11.06-1.79c-3.35-1.19-5.02-3.48-5.02-6.88h10c0,1.35.59,2.25,1.77,2.69,1.18.45,2.61.67,4.31.67,1.92,0,3.35-.24,4.29-.71.93-.47,1.4-1.24,1.4-2.31,0-.95-.55-1.54-1.64-1.79-1.09-.24-2.47-.37-4.14-.37h-1.51c-2.62,0-4.94-.14-6.96-.41-2.03-.27-3.79-.93-5.28-1.96-1.49-1.03-2.24-2.59-2.24-4.66,0-3.28,1.62-5.42,4.85-6.42,3.23-1.01,6.96-1.51,11.19-1.51,3.99,0,7.59.59,10.78,1.77s4.79,3.46,4.79,6.85l-9.91-.04c0-1.47-.75-2.37-2.24-2.72s-2.67-.52-3.53-.52c-1.32,0-2.64.15-3.94.45-1.31.3-1.96.97-1.96,2,0,1.72,1.94,2.62,5.82,2.67.83,0,1.47-.01,1.9-.04l-.03.03Z"/>
    <path class="st1" d="M108.06,13.36c2.5,1.09,4.45,2.61,5.86,4.55s2.11,4.12,2.11,6.53-.71,4.55-2.13,6.49-3.38,3.46-5.86,4.55c-2.49,1.09-5.28,1.64-8.38,1.64s-5.79-.55-8.41-1.66-4.71-2.63-6.27-4.57c-1.57-1.94-2.35-4.09-2.35-6.44s.78-4.55,2.35-6.49c1.57-1.94,3.65-3.46,6.25-4.57s5.41-1.66,8.43-1.66,5.91.55,8.41,1.64h-.01ZM102.87,30.22c.99-.49,1.79-1.23,2.39-2.22s.91-2.18.91-3.56-.3-2.56-.91-3.56c-.6-.99-1.4-1.73-2.39-2.22s-2.06-.73-3.21-.73-2.22.25-3.3.75-1.96,1.24-2.65,2.22-1.03,2.16-1.03,3.53.35,2.56,1.03,3.53c.69.98,1.57,1.72,2.65,2.22s2.18.75,3.3.75,2.22-.24,3.21-.73v.02Z"/>
    <path class="st1" d="M119.14,18.08c1.44-1.94,3.41-3.46,5.91-4.55s5.26-1.64,8.28-1.64,5.41.44,7.61,1.31c2.2.88,3.97,2.11,5.32,3.69,1.35,1.58,2.24,3.41,2.67,5.47h-9.91c-.32-1.29-.98-2.33-1.98-3.1-1.01-.78-2.23-1.16-3.66-1.16-1.87,0-3.39.6-4.57,1.79-1.18,1.19-1.77,2.77-1.77,4.72s.58,3.46,1.72,4.68c1.14,1.22,2.66,1.83,4.53,1.83,1.46,0,2.7-.39,3.71-1.16,1-.78,1.67-1.8,1.98-3.06h9.91c-.32,1.95-1.18,3.72-2.59,5.3s-3.24,2.83-5.5,3.75c-2.26.92-4.75,1.38-7.48,1.38-2.99,0-5.73-.55-8.23-1.66-2.5-1.11-4.48-2.63-5.93-4.57-1.45-1.94-2.18-4.1-2.18-6.49s.72-4.59,2.16-6.53h0Z"/>
    <path class="st1" d="M160.48,10.82h-9.91v-6.51h9.91v6.51ZM160.48,12.07h-9.91v24.14h9.91V12.07Z"/>
    <path class="st1" d="M189.49,13.75c3.28,1.38,4.91,3.81,4.91,7.28v15.17h-9.4l-.73-3.06v-.22c-.72,1.29-2.24,2.24-4.55,2.85-2.31.6-4.83.91-7.57.91-2.18,0-4.37-.48-6.55-1.44-2.18-.96-3.28-2.98-3.28-6.06,0-4.86,3.17-7.28,9.53-7.28,4.08,0,6.93-.04,8.54-.11s2.67-.22,3.19-.43c.52-.22.79-.61.82-1.19v-.56c-.03-.95-.65-1.64-1.88-2.09-1.22-.44-2.61-.67-4.16-.67-1.61.03-2.98.33-4.12.91s-1.7,1.45-1.7,2.63h-9.96c0-2.18.86-3.93,2.59-5.24,1.72-1.31,3.79-2.21,6.19-2.72,2.4-.5,4.75-.75,7.05-.75,4.11,0,7.8.69,11.08,2.07ZM182.59,28.97c1.09-.95,1.68-2.16,1.77-3.62v-.6c-1.09.46-2.83.69-5.22.69s-4.2.17-5.19.52-1.5.98-1.53,1.9c.09.86.54,1.5,1.36,1.92s2.15.62,3.99.62c2.13,0,3.74-.47,4.83-1.42h-.01Z"/>
    <path class="st1" d="M206.56,36.21h-9.91V4.31h9.91v31.9Z"/>
  </g>
  <path class="st0" d="M235.1,36.13l-8.84-10.31h-9.01v10.31h-8.62V4.21h23.32c2.67,0,5.04.45,7.09,1.34,2.05.89,3.65,2.13,4.78,3.73s1.7,3.44,1.7,5.54v.17c0,2.73-.8,4.99-2.39,6.77s-3.8,2.98-6.62,3.58l9.27,10.78h-10.69,0ZM236.04,12.06c-.55-.63-1.25-1.02-2.11-1.16s-2.08-.22-3.66-.22c-.69,0-1.28.02-1.77.04-2.36.06-6.11.09-11.25.09v8.41h13.02c1.58,0,2.8-.06,3.66-.19.86-.13,1.57-.5,2.11-1.1.55-.6.82-1.55.82-2.85,0-1.38-.27-2.39-.82-3.02Z"/>
</svg>