<?xml version="1.0" encoding="UTF-8"?>
<svg id="_Слой_1" xmlns="http://www.w3.org/2000/svg" version="1.1" viewBox="0 0 245.8 41.2">
  <!-- Generator: Adobe Illustrator 29.3.1, SVG Export Plug-In . SVG Version: 2.1.0 Build 151)  -->
  <defs>
    <style>
      .st0 {
        fill: #30509e;
      }

      .st1 {
        fill: #fff;
      }
    </style>
  </defs>
  <path class="st1" d="M0,37L17.4,4.2h9.4L9.4,37H0Z"/>
  <path class="st1" d="M23.8,37L41.2,4.2h9.4l-17.4,32.8h-9.4Z"/>
  <path class="st1" d="M67.8,22.2h2.5c3.4,0,6.1.4,8.2,1.3,2.1.9,3.2,2.6,3.2,5.2s-1.6,5.7-4.7,6.8c-3.2,1.1-6.8,1.7-10.8,1.7s-7.7-.6-11.1-1.8c-3.3-1.2-5-3.5-5-6.9h10c0,1.4.6,2.2,1.8,2.7,1.2.5,2.6.7,4.3.7s3.3-.2,4.3-.7c.9-.5,1.4-1.2,1.4-2.3s-.6-1.5-1.6-1.8c-1.1-.2-2.5-.4-4.1-.4h-1.5c-2.6,0-4.9-.1-7-.4-2-.3-3.8-.9-5.3-2-1.5-1-2.2-2.6-2.2-4.7,0-3.3,1.6-5.4,4.8-6.4,3.2-1,7-1.5,11.2-1.5s7.6.6,10.8,1.8,4.8,3.5,4.8,6.9h-9.9c0-1.5-.8-2.4-2.2-2.8s-2.7-.5-3.5-.5c-1.3,0-2.6.1-3.9.5-1.3.3-2,1-2,2,0,1.7,1.9,2.6,5.8,2.7.8,0,1.5,0,1.9,0,0,0,0,0,0,0Z"/>
  <path class="st1" d="M108.1,13.4c2.5,1.1,4.4,2.6,5.9,4.6s2.1,4.1,2.1,6.5-.7,4.6-2.1,6.5-3.4,3.5-5.9,4.5c-2.5,1.1-5.3,1.6-8.4,1.6s-5.8-.5-8.4-1.7-4.7-2.6-6.3-4.6c-1.6-1.9-2.3-4.1-2.3-6.4s.8-4.6,2.3-6.5c1.6-1.9,3.7-3.5,6.2-4.6s5.4-1.7,8.4-1.7,5.9.6,8.4,1.6h0ZM102.9,30.2c1-.5,1.8-1.2,2.4-2.2s.9-2.2.9-3.6-.3-2.6-.9-3.6c-.6-1-1.4-1.7-2.4-2.2s-2.1-.7-3.2-.7-2.2.2-3.3.8-2,1.2-2.7,2.2-1,2.2-1,3.5.3,2.6,1,3.5c.7,1,1.6,1.7,2.7,2.2s2.2.8,3.3.8,2.2-.2,3.2-.7c0,0,0,0,0,0Z"/>
  <path class="st1" d="M119.1,18.1c1.4-1.9,3.4-3.5,5.9-4.6s5.3-1.6,8.3-1.6,5.4.4,7.6,1.3c2.2.9,4,2.1,5.3,3.7,1.4,1.6,2.2,3.4,2.7,5.5h-9.9c-.3-1.3-1-2.3-2-3.1-1-.8-2.2-1.2-3.7-1.2s-3.4.6-4.6,1.8c-1.2,1.2-1.8,2.8-1.8,4.7s.6,3.5,1.7,4.7c1.1,1.2,2.7,1.8,4.5,1.8s2.7-.4,3.7-1.2c1-.8,1.7-1.8,2-3.1h9.9c-.3,2-1.2,3.7-2.6,5.3s-3.2,2.8-5.5,3.8c-2.3.9-4.8,1.4-7.5,1.4s-5.7-.5-8.2-1.7c-2.5-1.1-4.5-2.6-5.9-4.6-1.4-1.9-2.2-4.1-2.2-6.5s.7-4.6,2.2-6.5h0Z"/>
  <path class="st1" d="M160.5,10.8h-9.9v-6.5h9.9v6.5ZM160.5,12.1h-9.9v24.1h9.9V12.1Z"/>
  <path class="st1" d="M189.5,13.8c3.3,1.4,4.9,3.8,4.9,7.3v15.2h-9.4l-.7-3.1v-.2c-.7,1.3-2.2,2.2-4.6,2.8-2.3.6-4.8.9-7.6.9s-4.4-.5-6.6-1.4c-2.2-1-3.3-3-3.3-6.1,0-4.9,3.2-7.3,9.5-7.3s6.9,0,8.5-.1,2.7-.2,3.2-.4c.5-.2.8-.6.8-1.2v-.6c0-1-.6-1.6-1.9-2.1-1.2-.4-2.6-.7-4.2-.7-1.6,0-3,.3-4.1.9s-1.7,1.5-1.7,2.6h-10c0-2.2.9-3.9,2.6-5.2,1.7-1.3,3.8-2.2,6.2-2.7,2.4-.5,4.8-.8,7.1-.8,4.1,0,7.8.7,11.1,2.1ZM182.6,29c1.1-1,1.7-2.2,1.8-3.6v-.6c-1.1.5-2.8.7-5.2.7s-4.2.2-5.2.5-1.5,1-1.5,1.9c0,.9.5,1.5,1.4,1.9s2.1.6,4,.6,3.7-.5,4.8-1.4h0Z"/>
  <path class="st1" d="M206.6,36.2h-9.9V4.3h9.9v31.9Z"/>
  <path class="st0" d="M229.8,37.3l-8.8-10.2h-9v10.2h-8.6V5.7h23.3c2.7,0,5,.4,7.1,1.3,2.1.9,3.6,2.1,4.8,3.7s1.7,3.4,1.7,5.5v.2c0,2.7-.8,4.9-2.4,6.7s-3.8,3-6.6,3.6l9.3,10.7h-10.7,0ZM230.7,13.5c-.6-.6-1.2-1-2.1-1.2s-2.1-.2-3.7-.2-1.3,0-1.8,0c-2.4,0-6.1,0-11.2,0v8.3h13c1.6,0,2.8,0,3.7-.2.9-.1,1.6-.5,2.1-1.1.6-.6.8-1.5.8-2.8s-.3-2.4-.8-3Z"/>
</svg>